<svg width="185" height="52" viewBox="0 0 185 52" fill="none" xmlns="http://www.w3.org/2000/svg">
<path fill-rule="evenodd" clip-rule="evenodd" d="M23.7513 7.5H20.2942V19.2742C20.1964 19.2909 20.0991 19.309 20.0023 19.3284L15.8156 8.32328L12.5844 9.55253L16.7781 20.5761C16.7021 20.6216 16.6267 20.6682 16.552 20.7156L8.73086 11.8842L6.14275 14.1762L13.9882 23.0352L13.9535 23.0796L3.58895 17.3678L1.92035 20.3956L12.3243 26.1291C12.2997 26.2034 12.2759 26.278 12.253 26.353L0.490633 24.6666L0 28.0888L10.629 29.6127L0.0322297 31.3464L0.590446 34.7582L12.4167 32.8233L12.4236 32.8421L1.94094 38.6497L3.61631 41.6737L14.1425 35.8421C14.1807 35.8883 14.2192 35.9342 14.2582 35.9797L6.47149 45.1573L9.10763 47.3939L16.8709 38.2439L12.6293 49.469L15.8633 50.691L20.1361 39.3833C20.1887 39.3931 20.2413 39.4025 20.2942 39.4115V51.5H23.7513V39.4115C23.8115 39.4013 23.8715 39.3905 23.9313 39.3792L28.2294 50.6771L31.4606 49.4479L27.1693 38.1677C27.2176 38.1395 27.2657 38.1108 27.3136 38.0818L35.3142 47.1159L37.9024 44.8239L29.9469 35.8408L40.4561 41.6323L42.1247 38.6045L31.6296 32.8208C31.6522 32.7585 31.6742 32.6958 31.6956 32.633L43.5546 34.3332L44.0453 30.911L33.4172 29.3873L44.0131 27.6537L43.4549 24.2419L31.7314 26.16L31.7139 26.1072L42.1044 20.3507L40.429 17.3267L30.0778 23.0614C30.0259 22.995 29.9733 22.9293 29.9199 22.8642L37.574 13.8429L34.9378 11.6063L27.3071 20.6L27.2473 20.5641L31.4161 9.53148L28.1822 8.30948L24.0202 19.3238C23.931 19.3061 23.8413 19.2896 23.7513 19.2742V7.5Z" fill="#6A45FF"/>
<path d="M59.7875 22.3438C59.1729 22.3958 58.6104 22.4531 58.1 22.5156C57.5896 22.5677 57.1 22.625 56.6312 22.6875V38.5C57.3187 38.5938 58.0792 38.6771 58.9125 38.75C59.7458 38.8229 60.6521 38.875 61.6312 38.9062C61.9437 38.9271 62.251 38.9375 62.5531 38.9375C62.8552 38.9375 63.1625 38.9375 63.475 38.9375C63.7875 38.9375 64.1 38.9375 64.4125 38.9375C64.725 38.9375 65.0375 38.9271 65.35 38.9062C66.5167 38.875 67.5531 38.8177 68.4594 38.7344C69.376 38.6406 70.2042 38.5208 70.9437 38.375C71.1312 37.3438 71.2875 36.0938 71.4125 34.625H74.975C74.9125 35.7396 74.824 36.8802 74.7094 38.0469C74.5948 39.2031 74.4333 40.3958 74.225 41.625C72.2458 41.9583 70.3604 42.1823 68.5687 42.2969C66.7875 42.4115 65.1104 42.4688 63.5375 42.4688C61.9229 42.4688 60.2146 42.4115 58.4125 42.2969C56.6104 42.1823 54.7354 41.9583 52.7875 41.625V19.5312C54.0271 19.3125 55.225 19.151 56.3812 19.0469C57.5479 18.9323 58.6833 18.8438 59.7875 18.7812V22.3438ZM98.2937 18.3125C99.3354 18.3125 100.346 18.375 101.325 18.5C102.304 18.625 103.221 18.8073 104.075 19.0469C104.929 19.276 105.71 19.5573 106.419 19.8906C107.127 20.2135 107.731 20.5833 108.231 21C108.731 21.4167 109.122 21.875 109.403 22.375C109.684 22.8646 109.825 23.3854 109.825 23.9375V37.3438C109.825 37.8958 109.684 38.4219 109.403 38.9219C109.122 39.4115 108.731 39.8646 108.231 40.2812C107.731 40.6979 107.127 41.0729 106.419 41.4062C105.71 41.7292 104.929 42.0104 104.075 42.25C103.221 42.4792 102.304 42.6562 101.325 42.7812C100.346 42.9062 99.3354 42.9688 98.2937 42.9688C97.2521 42.9688 96.2417 42.9062 95.2625 42.7812C94.2937 42.6562 93.3823 42.4792 92.5281 42.25C91.6844 42.0104 90.9083 41.7292 90.2 41.4062C89.4917 41.0729 88.8823 40.6979 88.3719 40.2812C87.8719 39.8646 87.4812 39.4115 87.2 38.9219C86.9292 38.4219 86.7937 37.8958 86.7937 37.3438V23.9375C86.7937 23.3854 86.9292 22.8646 87.2 22.375C87.4812 21.875 87.8719 21.4167 88.3719 21C88.8823 20.5833 89.4917 20.2135 90.2 19.8906C90.9083 19.5573 91.6844 19.276 92.5281 19.0469C93.3823 18.8073 94.2937 18.625 95.2625 18.5C96.2417 18.375 97.2521 18.3125 98.2937 18.3125ZM105.731 25.125C105.731 24.6771 105.559 24.2552 105.216 23.8594C104.872 23.4531 104.377 23.099 103.731 22.7969C103.096 22.4844 102.32 22.2396 101.403 22.0625C100.486 21.875 99.45 21.7812 98.2937 21.7812C97.1792 21.7812 96.1687 21.8698 95.2625 22.0469C94.3562 22.2135 93.575 22.4479 92.9187 22.75C92.2729 23.0521 91.7729 23.4062 91.4187 23.8125C91.0646 24.2188 90.8875 24.6562 90.8875 25.125V36.1562C90.8875 36.6146 91.0646 37.0469 91.4187 37.4531C91.7729 37.8594 92.2729 38.2135 92.9187 38.5156C93.575 38.8177 94.3562 39.0573 95.2625 39.2344C96.1687 39.4115 97.1792 39.5 98.2937 39.5C99.45 39.5 100.486 39.4115 101.403 39.2344C102.32 39.0469 103.096 38.7969 103.731 38.4844C104.377 38.1719 104.872 37.8177 105.216 37.4219C105.559 37.0156 105.731 36.5938 105.731 36.1562V25.125ZM134.612 18.6875C136.185 18.6875 137.67 18.8281 139.066 19.1094C140.461 19.3906 141.68 19.7812 142.722 20.2812C143.774 20.7812 144.607 21.3802 145.222 22.0781C145.836 22.776 146.144 23.5417 146.144 24.375V26.9062H142.081V25.5625C142.081 25.1146 141.909 24.6875 141.566 24.2812C141.222 23.875 140.727 23.5156 140.081 23.2031C139.446 22.8906 138.665 22.6458 137.737 22.4688C136.821 22.2812 135.779 22.1875 134.612 22.1875C133.487 22.1875 132.467 22.276 131.55 22.4531C130.633 22.6302 129.847 22.8698 129.191 23.1719C128.534 23.474 128.029 23.8333 127.675 24.25C127.321 24.6562 127.144 25.0938 127.144 25.5625V35.6875C127.144 36.1458 127.321 36.5833 127.675 37C128.029 37.4062 128.534 37.7656 129.191 38.0781C129.847 38.3802 130.633 38.6198 131.55 38.7969C132.467 38.974 133.487 39.0625 134.612 39.0625C135.779 39.0625 136.821 38.974 137.737 38.7969C138.665 38.6094 139.446 38.3594 140.081 38.0469C140.727 37.7344 141.222 37.375 141.566 36.9688C141.909 36.5625 142.081 36.1354 142.081 35.6875V33.4375C141.112 33.4375 140.243 33.4635 139.472 33.5156C138.711 33.5677 138.06 33.6198 137.519 33.6719C136.883 33.7448 136.321 33.8229 135.831 33.9062L136.237 30.125C137.831 30 139.331 29.9375 140.737 29.9375C142.623 29.9375 144.425 30.0312 146.144 30.2188V36.875C146.144 37.7083 145.836 38.474 145.222 39.1719C144.607 39.8594 143.774 40.4531 142.722 40.9531C141.68 41.4531 140.461 41.8438 139.066 42.125C137.67 42.3958 136.185 42.5312 134.612 42.5312C133.04 42.5312 131.555 42.3958 130.159 42.125C128.764 41.8438 127.54 41.4531 126.487 40.9531C125.446 40.4531 124.618 39.8594 124.003 39.1719C123.389 38.474 123.081 37.7083 123.081 36.875V24.375C123.081 23.5417 123.389 22.776 124.003 22.0781C124.618 21.3802 125.446 20.7812 126.487 20.2812C127.54 19.7812 128.764 19.3906 130.159 19.1094C131.555 18.8281 133.04 18.6875 134.612 18.6875ZM171.181 18.3125C172.223 18.3125 173.233 18.375 174.213 18.5C175.192 18.625 176.108 18.8073 176.963 19.0469C177.817 19.276 178.598 19.5573 179.306 19.8906C180.015 20.2135 180.619 20.5833 181.119 21C181.619 21.4167 182.009 21.875 182.291 22.375C182.572 22.8646 182.713 23.3854 182.713 23.9375V37.3438C182.713 37.8958 182.572 38.4219 182.291 38.9219C182.009 39.4115 181.619 39.8646 181.119 40.2812C180.619 40.6979 180.015 41.0729 179.306 41.4062C178.598 41.7292 177.817 42.0104 176.963 42.25C176.108 42.4792 175.192 42.6562 174.213 42.7812C173.233 42.9062 172.223 42.9688 171.181 42.9688C170.14 42.9688 169.129 42.9062 168.15 42.7812C167.181 42.6562 166.27 42.4792 165.416 42.25C164.572 42.0104 163.796 41.7292 163.088 41.4062C162.379 41.0729 161.77 40.6979 161.259 40.2812C160.759 39.8646 160.369 39.4115 160.088 38.9219C159.817 38.4219 159.681 37.8958 159.681 37.3438V23.9375C159.681 23.3854 159.817 22.8646 160.088 22.375C160.369 21.875 160.759 21.4167 161.259 21C161.77 20.5833 162.379 20.2135 163.088 19.8906C163.796 19.5573 164.572 19.276 165.416 19.0469C166.27 18.8073 167.181 18.625 168.15 18.5C169.129 18.375 170.14 18.3125 171.181 18.3125ZM178.619 25.125C178.619 24.6771 178.447 24.2552 178.103 23.8594C177.759 23.4531 177.265 23.099 176.619 22.7969C175.983 22.4844 175.207 22.2396 174.291 22.0625C173.374 21.875 172.338 21.7812 171.181 21.7812C170.067 21.7812 169.056 21.8698 168.15 22.0469C167.244 22.2135 166.463 22.4479 165.806 22.75C165.16 23.0521 164.66 23.4062 164.306 23.8125C163.952 24.2188 163.775 24.6562 163.775 25.125V36.1562C163.775 36.6146 163.952 37.0469 164.306 37.4531C164.66 37.8594 165.16 38.2135 165.806 38.5156C166.463 38.8177 167.244 39.0573 168.15 39.2344C169.056 39.4115 170.067 39.5 171.181 39.5C172.338 39.5 173.374 39.4115 174.291 39.2344C175.207 39.0469 175.983 38.7969 176.619 38.4844C177.265 38.1719 177.759 37.8177 178.103 37.4219C178.447 37.0156 178.619 36.5938 178.619 36.1562V25.125Z" fill="black"/>
</svg>
